<?xml version="1.0" encoding="UTF-8"?><svg xmlns="http://www.w3.org/2000/svg" viewBox="0 0 578.91 222.3">

<g id="a">
<path d="M118.09,112.28h119.57c5.51,0,11.03,.14,16.54,0,.08,0,.16,0,.24,0,2.18,0,4.27-1.92,4.17-4.17s-1.83-4.17-4.17-4.17h-119.57c-5.51,0-11.03-.14-16.54,0-.08,0-.16,0-.24,0-2.18,0-4.27,1.92-4.17,4.17s1.83,4.17,4.17,4.17h0Z" style="fill:#65256e;"/>
<path d="M267.81,58.3c0,.56-.02,1.11-.06,1.66-.02,.22-.04,.43-.06,.64,.1-1.08,0-.04-.04,.16-.18,1.01-.49,1.96-.81,2.93-.07,.21-.33,.69,.08-.15-.11,.22-.2,.45-.31,.67-.2,.4-.41,.78-.63,1.16-.25,.42-.53,.82-.81,1.23-.13,.19-.49,.54,.1-.12-.2,.22-.38,.46-.58,.68-.68,.76-1.42,1.46-2.2,2.11-.16,.13-.32,.26-.49,.39,.68-.54,.22-.17,.07-.07-.54,.37-1.07,.74-1.63,1.09-.87,.54-1.78,1.03-2.7,1.48-.54,.26-1.08,.51-1.62,.75,.15-.07,.71-.28-.04,.01-.35,.14-.7,.28-1.05,.41-5.47,2.07-11.27,3.21-17.04,4.03-.2,.03-.39,.05-.59,.08-.57,.08,1.11-.14,.26-.03-.4,.05-.8,.1-1.2,.15-.81,.1-1.63,.19-2.44,.28-1.59,.17-3.18,.32-4.78,.45-3.43,.28-6.87,.48-10.31,.63-7.34,.32-14.68,.41-22.02,.44-14.9,.07-29.82-.17-44.71,.49-6.93,.31-13.84,.85-20.71,1.82-5.54,.78-11.09,1.86-16.37,3.74-8.92,3.19-17.73,9.14-19.27,19.21-.77,5.01-.19,10.13,2.25,14.63,2.22,4.08,5.91,7.26,9.92,9.5,10.22,5.73,22.68,7.14,34.15,8.09,14.52,1.2,29.12,1.1,43.67,1.1,14.55,0,29.14-.1,43.65,1.11,1.63,.14,3.26,.29,4.89,.47,.77,.08,1.54,.17,2.31,.27,.4,.05,.8,.08,1.2,.15-1.06-.19-.17-.02,.33,.05,2.91,.42,5.81,.93,8.67,1.59s5.73,1.48,8.49,2.54c.29,.11,.58,.23,.86,.34,.66,.26-.85-.4,.2,.09,.48,.23,.97,.45,1.45,.68,1.01,.51,2.01,1.06,2.96,1.67,.41,.26,.81,.55,1.21,.82,.85,.57-.42-.38,.06,.03,.2,.17,.41,.33,.6,.5,.77,.66,1.5,1.37,2.16,2.14,.03,.04,.66,.79,.24,.28s.18,.25,.21,.3c.25,.36,.49,.73,.71,1.11s.43,.77,.62,1.17c.03,.06,.39,.94,.16,.32s.1,.29,.12,.34c.31,.86,.54,1.75,.7,2.65,0,.05,.14,1.07,.07,.39s.03,.38,.03,.42c.04,.55,.06,1.11,.06,1.66,.02,2.14,1.87,4.19,4.09,4.09s4.11-1.8,4.09-4.09c-.03-4.5-1.24-9.02-3.94-12.67s-6.59-6.59-10.83-8.58c-5.93-2.78-12.3-4.34-18.75-5.37-13.9-2.23-28.06-2.52-42.11-2.62-14.97-.11-29.94,.15-44.9-.38-6.77-.24-13.55-.64-20.28-1.46-.4-.05-.8-.1-1.2-.15-1.15-.15,.75,.11-.22-.03-.82-.12-1.63-.23-2.44-.36-1.42-.23-2.84-.48-4.25-.76-2.68-.54-5.34-1.19-7.94-2.01-1.22-.39-2.43-.82-3.62-1.3-.11-.05-.23-.09-.34-.14-.57-.23,.47,.2,.47,.2-.27-.14-.56-.24-.83-.37-.54-.24-1.07-.5-1.6-.77-1-.52-1.98-1.08-2.93-1.7-.41-.27-.79-.57-1.19-.84-.47-.32,.47,.37,.45,.35-.11-.11-.25-.2-.37-.3-.2-.17-.4-.33-.6-.5-.76-.67-1.48-1.39-2.13-2.17-.13-.15-.24-.32-.38-.46,.99,1.08,.34,.44,.11,.11-.28-.4-.55-.82-.79-1.24s-.45-.82-.65-1.24c-.34-.72,0-.27,.08,.23-.05-.27-.23-.58-.32-.84-.32-.92-.54-1.87-.71-2.83-.2-1.11,.04,.63,.01,.14-.01-.24-.05-.49-.07-.73-.04-.58-.06-1.17-.06-1.76,0-.5,.02-1,.06-1.5,.02-.26,.09-.54,.08-.81,0-.04-.19,1.19-.08,.61,.03-.15,.05-.31,.08-.47,.18-1,.44-2,.79-2.95,.07-.19,.16-.37,.22-.56-.41,1.39-.23,.54-.05,.16,.21-.44,.44-.88,.69-1.3s.49-.79,.76-1.18c.45-.63,.24-.18-.15,.17,.21-.19,.38-.48,.57-.69,.63-.73,1.32-1.41,2.06-2.04,.2-.17,.4-.33,.6-.5,.71-.59-.8,.57-.14,.11,.47-.33,.92-.66,1.4-.97,.91-.58,1.84-1.12,2.81-1.6,.5-.25,1.01-.5,1.53-.73,.25-.11,.51-.21,.75-.33-1.33,.67-.12,.06,.22-.08,1.14-.45,2.3-.85,3.46-1.22,2.61-.82,5.28-1.46,7.97-2,1.49-.3,2.99-.56,4.49-.79,.7-.11,1.4-.21,2.1-.31s-.33,.04-.38,.05c.24-.04,.48-.06,.72-.09,.4-.05,.8-.1,1.2-.15,3.27-.39,6.55-.68,9.83-.91,14.66-1.01,29.39-.85,44.07-.86s28.85,.03,43.18-1.38c6.25-.62,12.52-1.47,18.61-3.05,8.01-2.08,16.11-5.53,21.11-12.41,2.6-3.58,3.74-8.05,3.77-12.43,.02-2.14-1.89-4.19-4.09-4.09s-4.07,1.8-4.09,4.09h0Z" style="fill:#65256e;"/>
<path d="M119.76,188.34c3.67,0,7.35,.02,11.02,.02,8.87,.02,17.73,.04,26.6,.06,10.69,.02,21.37,.05,32.06,.07,9.27,.02,18.55,.04,27.82,.06,4.48,.01,8.98,.15,13.45,.03,.06,0,.13,0,.19,0,2.18,0,4.27-1.92,4.17-4.17s-1.83-4.16-4.17-4.17c-3.67,0-7.35-.02-11.02-.02-8.87-.02-17.73-.04-26.6-.06-10.69-.02-21.37-.05-32.06-.07-9.27-.02-18.55-.04-27.82-.06-4.48-.01-8.98-.15-13.45-.03-.06,0-.13,0-.19,0-2.18,0-4.27,1.92-4.17,4.17s1.83,4.16,4.17,4.17h0Z" style="fill:#65256e;"/><path d="M123.47,42.56c3.67,0,7.35,.02,11.02,.02,8.87,.02,17.73,.04,26.6,.06l32.06,.07c9.27,.02,18.55,.04,27.82,.06,4.48,.01,8.98,.15,13.45,.03,.06,0,.13,0,.19,0,2.18,0,4.27-1.92,4.17-4.17s-1.83-4.16-4.17-4.17c-3.67,0-7.35-.02-11.02-.02-8.87-.02-17.73-.04-26.6-.06l-32.06-.07c-9.27-.02-18.55-.04-27.82-.06-4.48-.01-8.98-.15-13.45-.03-.06,0-.13,0-.19,0-2.18,0-4.27,1.92-4.17,4.17s1.83,4.16,4.17,4.17h0Z" style="fill:#65256e;"/>
<path d="M129.38,35.57c-18.4,1.42-36.74,6.73-51.95,17.44-12.47,8.79-22.44,20.87-27.94,35.16-4.85,12.61-5.59,26.56-3.09,39.79s8.83,25.24,18.47,34.48c12.28,11.76,28.64,18.27,45.09,21.65,2.55,.52,5.11,.97,7.68,1.36,1.11,.17,2.24-.28,2.56-1.46,.27-.99-.34-2.39-1.46-2.56-16.66-2.54-33.72-7.68-46.99-18.47-9.99-8.13-17.03-19.04-20.28-31.42s-3.23-25.13,.29-37.12c4.02-13.65,12.53-25.59,23.49-34.57,13.31-10.89,30-17.02,46.91-19.36,2.39-.33,4.8-.57,7.2-.75,2.66-.2,2.68-4.37,0-4.17h0Z" style="fill:#65256e;"/>
<path d="M129.38,59.95c-29.09,0-53.03,23.49-53.03,52.03s23.94,52.03,53.03,52.03" style="fill:none; stroke:#65256e; stroke-miterlimit:10; stroke-width:5px;"/><path d="M79.72,61.6h53.03V.49h-53.03V61.6Z" style="fill:#65256e; stroke:#65256e; stroke-miterlimit:10; stroke-width:.98px;"/><rect x="79.72" y="162.35" width="53.03" height="59.46" style="fill:#65256e; stroke:#65256e; stroke-miterlimit:10; stroke-width:.96px;"/><rect x=".6" y="74.81" width="68.18" height="81.76" style="fill:#65256e; stroke:#65256e; stroke-miterlimit:10; stroke-width:1.21px;"/><polygon points="72.29 36.41 40.16 67.94 13.37 41.66 45.51 10.13 72.29 36.41" style="fill:#65256e; stroke:#65256e; stroke-miterlimit:10; stroke-width:1.21px;"/><polygon points="15.78 189.1 50.18 218.24 74.94 190.11 40.53 160.97 15.78 189.1" style="fill:#65256e; stroke:#65256e; stroke-miterlimit:10; stroke-width:1.21px;"/></g><g id="b"><path d="M129.38,38.85c-44.89-4.58-80.07,37.95-77.64,79.95,2.25,38.84,36.46,73.91,77.64,69.18" style="fill:none; stroke:#65256e; stroke-miterlimit:10; stroke-width:48.77px;"/></g><g id="c"><rect x="233.23" y="174.99" width="18.69" height="18.34" rx="9.17" ry="9.17" style="fill:#bb5686; stroke:#65256e; stroke-miterlimit:10; stroke-width:7.44px;"/><path d="M274.54,109.76h0c-.7,6.09-6.36,10.51-12.56,9.81h0c-6.21-.69-10.71-6.24-10-12.33h0c.7-6.09,6.36-10.51,12.56-9.81h0c6.21,.69,10.71,6.24,10,12.33Z" style="fill:#bb5686; stroke:#65256e; stroke-miterlimit:10; stroke-width:9.05px;"/><rect x="237.94" y="29.86" width="18.69" height="18.34" rx="9.17" ry="9.17" style="fill:#bb5686; stroke:#65256e; stroke-miterlimit:10; stroke-width:7.44px;"/><rect x="263.9" y="50.78" width="18.69" height="18.34" rx="9.17" ry="9.17" style="fill:#bb5686; stroke:#65256e; stroke-miterlimit:10; stroke-width:7.44px;"/><rect x="263.25" y="147.74" width="18.69" height="18.34" rx="9.17" ry="9.17" style="fill:#bb5686; stroke:#65256e; stroke-miterlimit:10; stroke-width:7.44px;"/></g><g id="d"><path d="M261.75,108.24c-46.51,.26-97.14,2.41-143.46,0,0,0,0-.25,0-.25,23.9-1.37,47.81-1.29,71.73-.88,17.86,.16,53.87,.6,71.73,.88,0,0,0,.25,0,.25h0Z" style="fill:#bb5686;"/><path d="M271.91,58.3c-.13,16.43-19.41,20.68-32.45,22.52-13.89,1.96-28.03,2.07-42.03,2.13-14.9,.07-29.82-.17-44.71,.49-12.05,.54-24.68,1.34-36.13,5.43-7.83,2.8-15.45,7.9-16.77,16.72-.6,4.02-.06,8.28,1.89,11.88s5.13,6.26,8.63,8.22c4.37,2.45,9.25,3.93,14.11,5.02,6,1.34,12.12,2.08,18.24,2.58,14.52,1.2,29.12,1.1,43.67,1.1,14.55,0,29.14-.1,43.65,1.11,6.16,.51,12.32,1.27,18.35,2.66,7.03,1.62,14.71,4.11,19.57,9.74,2.7,3.13,3.95,7.06,3.98,11.16,0,.67,1.05,.67,1.04,0-.12-16.11-17.83-21.08-30.9-23.18s-27.44-2.39-41.16-2.5c-14.97-.11-29.94,.15-44.9-.38-12.43-.44-25.35-1.11-37.29-4.9-8.01-2.54-16.36-7.28-17.85-16.3-.67-4.03-.06-8.36,2.03-11.9s5.54-6.13,9.19-7.99c4.63-2.35,9.72-3.71,14.79-4.71,6.24-1.23,12.58-1.89,18.92-2.33,14.66-1.01,29.39-.85,44.07-.86s28.85,.03,43.18-1.38c5.93-.59,11.88-1.42,17.66-2.92,7.01-1.82,14.57-4.71,18.97-10.77,2.25-3.1,3.25-6.83,3.28-10.63,0-.67-1.04-.67-1.04,0h0Z" style="fill:#bb5686;"/><path d="M247.29,39.03c-38.16,1.71-76.39,1.73-114.54,0,38.16-1.73,76.39-1.71,114.54,0h0Z" style="fill:#bb5686;"/><path d="M247.29,184.3c-38.16,1.71-76.39,1.73-114.54,0,38.16-1.73,76.39-1.71,114.54,0h0Z" style="fill:#bb5686;"/><g style="opacity:.65;"><path d="M122.09,8.49c1.16,10.32,1.19,20.77,.06,31.1-1.17-10.32-1.18-20.77-.06-31.1h0Z" style="fill:#bb5686;"/></g><g style="opacity:.65;"><path d="M73.67,69.12c7.37-6.03,15.3-11.21,23.37-16.19,8.13-4.9,16.36-9.57,25.11-13.34-7.36,6.04-15.29,11.21-23.37,16.19-8.13,4.89-16.37,9.56-25.11,13.34h0Z" style="fill:#bb5686;"/></g><g style="opacity:.65;"><path d="M42.83,39.03c11.06,9.19,21.38,19.25,30.83,30.08-11.06-9.18-21.37-19.26-30.83-30.08h0Z" style="fill:#bb5686;"/></g><g style="opacity:.65;"><path d="M15.75,115.5c18.41-1.14,36.83-1.15,55.24,0-18.41,1.15-36.83,1.14-55.24,0h0Z" style="fill:#bb5686;"/></g><g style="opacity:.65;"><path d="M73.67,69.12c.87,7.77,.73,15.52,.33,23.29-.49,7.76-1.24,15.48-3,23.1-.88-7.77-.74-15.52-.33-23.29,.49-7.76,1.24-15.48,3-23.1h0Z" style="fill:#bb5686;"/></g><g style="opacity:.65;"><path d="M45.36,189.61c11.73-12.25,24.24-23.66,37.52-34.21-11.73,12.25-24.24,23.65-37.52,34.21h0Z" style="fill:#bb5686;"/></g><g style="opacity:.65;"><path d="M70.99,115.5c3.23,6.23,5.51,12.8,7.54,19.47,1.96,6.7,3.64,13.44,4.34,20.42-3.24-6.23-5.51-12.79-7.54-19.47-1.95-6.7-3.64-13.44-4.34-20.42h0Z" style="fill:#bb5686;"/></g><g style="opacity:.65;"><path d="M122.12,172.5c1.14,14.28,1.15,28.65,0,42.94-1.15-14.28-1.14-28.65,0-42.94h0Z" style="fill:#bb5686;"/></g><g style="opacity:.65;"><path d="M82.88,155.39c7.03,1.63,13.69,4.2,20.29,7.03,6.56,2.9,12.98,6.03,18.96,10.08-7.03-1.62-13.7-4.19-20.29-7.03-6.56-2.91-12.98-6.04-18.96-10.08h0Z" style="fill:#bb5686;"/></g><rect x="69.22" y="66.28" width="6.97" height="6.84" rx="3.42" ry="3.42" style="fill:#3d2975; stroke:#009fe3; stroke-miterlimit:10; stroke-width:2.78px;"/><rect x="118.63" y="35.61" width="6.97" height="6.84" rx="3.42" ry="3.42" style="fill:#3d2975; stroke:#009fe3; stroke-miterlimit:10; stroke-width:2.78px;"/><rect x="67.51" y="112.27" width="6.97" height="6.84" rx="3.42" ry="3.42" style="fill:#3d2975; stroke:#009fe3; stroke-miterlimit:10; stroke-width:2.78px;"/><rect x="79.39" y="151.97" width="6.97" height="6.84" rx="3.42" ry="3.42" style="fill:#3d2975; stroke:#009fe3; stroke-miterlimit:10; stroke-width:2.78px;"/><rect x="118.63" y="169.08" width="6.97" height="6.84" rx="3.42" ry="3.42" style="fill:#3d2975; stroke:#009fe3; stroke-miterlimit:10; stroke-width:2.78px;"/><rect x="12.27" y="112.08" width="6.97" height="6.84" rx="3.42" ry="3.42" style="fill:#009fe3; stroke:#3d2975; stroke-miterlimit:10; stroke-width:2.78px;"/><rect x="39.35" y="34.79" width="6.97" height="6.84" rx="3.42" ry="3.42" style="fill:#009fe3; stroke:#3d2975; stroke-miterlimit:10; stroke-width:2.78px;"/><rect x="118.63" y="5.65" width="6.97" height="6.84" rx="3.42" ry="3.42" style="fill:#009fe3; stroke:#3d2975; stroke-miterlimit:10; stroke-width:2.78px;"/><rect x="41.29" y="186.72" width="6.97" height="6.84" rx="3.42" ry="3.42" style="fill:#009fe3; stroke:#3d2975; stroke-miterlimit:10; stroke-width:2.78px;"/><rect x="118.29" y="208.6" width="6.97" height="6.84" rx="3.42" ry="3.42" style="fill:#009fe3; stroke:#3d2975; stroke-miterlimit:10; stroke-width:2.78px;"/></g><g id="e"><line x1="46.32" y1="20.73" x2="60.89" y2="34.79" style="fill:none; stroke:#29235c; stroke-miterlimit:10; stroke-width:.83px;"/><line x1="27.03" y1="39.03" x2="46.32" y2="20.73" style="fill:none; stroke:#29235c; stroke-miterlimit:10; stroke-width:.83px;"/><line x1="51.62" y1="54.35" x2="51.62" y2="69.12" style="fill:none; stroke:#29235c; stroke-miterlimit:10; stroke-width:.83px;"/><line x1="30.9" y1="79.9" x2="45.36" y2="79.9" style="fill:none; stroke:#29235c; stroke-miterlimit:10; stroke-width:.83px;"/><line x1="47.75" y1="75.79" x2="41.48" y2="86.57" style="fill:none; stroke:#29235c; stroke-miterlimit:10; stroke-width:.83px;"/><line x1="19.24" y1="101.76" x2="45.36" y2="102.05" style="fill:none; stroke:#29235c; stroke-miterlimit:10; stroke-width:.83px;"/><line x1="51.56" y1="93.24" x2="38.67" y2="111.56" style="fill:none; stroke:#29235c; stroke-miterlimit:10; stroke-width:.83px;"/><line x1="45.36" y1="79.9" x2="45.36" y2="102.05" style="fill:none; stroke:#29235c; stroke-miterlimit:10; stroke-width:.83px;"/><path d="M48.12,76.74c2.68,0,2.69-4.17,0-4.17s-2.69,4.17,0,4.17h0Z" style="fill:#dedc00;"/><path d="M40.69,88.98c2.68,0,2.69-4.17,0-4.17s-2.69,4.17,0,4.17h0Z" style="fill:#dedc00;"/><path d="M32.36,80.79l.3-.29c.2-.19,.35-.41,.43-.67,.13-.25,.19-.52,.18-.8,.01-.29-.05-.55-.18-.8-.08-.26-.23-.48-.43-.67l-.42-.33c-.33-.19-.68-.28-1.05-.28l-.55,.07c-.35,.1-.66,.28-.92,.54l-.3,.29c-.2,.19-.35,.41-.43,.67-.13,.25-.19,.52-.18,.8-.01,.29,.05,.55,.18,.8,.08,.26,.23,.48,.43,.67l.42,.33c.33,.19,.68,.28,1.05,.28l.55-.07c.35-.1,.66-.28,.92-.54h0Z" style="fill:#dedc00;"/><path d="M51.98,95.1c2.68,0,2.69-4.17,0-4.17s-2.69,4.17,0,4.17h0Z" style="fill:#dedc00;"/><path d="M45.45,104.43h.3c.29,.01,.55-.05,.8-.18,.26-.08,.48-.23,.67-.43,.2-.19,.35-.41,.43-.67,.13-.25,.19-.52,.18-.8l-.07-.55c-.1-.35-.28-.66-.54-.92l-.42-.33c-.33-.19-.68-.28-1.05-.28h-.3c-.29-.01-.55,.05-.8,.18-.26,.08-.48,.23-.67,.43-.2,.19-.35,.41-.43,.67-.13,.25-.19,.52-.18,.8l.07,.55c.1,.35,.28,.66,.54,.92l.42,.33c.33,.19,.68,.28,1.05,.28h0Z" style="fill:#dedc00;"/><path d="M39.5,113.17c2.68,0,2.69-4.17,0-4.17s-2.69,4.17,0,4.17h0Z" style="fill:#dedc00;"/><path d="M17.82,104.43c2.68,0,2.69-4.17,0-4.17s-2.69,4.17,0,4.17h0Z" style="fill:#dedc00;"/><path d="M51.68,56.63c2.68,0,2.69-4.17,0-4.17s-2.69,4.17,0,4.17h0Z" style="fill:#dedc00;"/><path d="M47.23,23.69c2.68,0,2.69-4.17,0-4.17s-2.69,4.17,0,4.17h0Z" style="fill:#dedc00;"/><path d="M61.78,36.52c2.68,0,2.69-4.17,0-4.17s-2.69,4.17,0,4.17h0Z" style="fill:#dedc00;"/><path d="M27.03,40.6c2.68,0,2.69-4.17,0-4.17s-2.69,4.17,0,4.17h0Z" style="fill:#dedc00;"/><line x1="46.2" y1="155.03" x2="60.65" y2="155.03" style="fill:none; stroke:#29235c; stroke-miterlimit:10; stroke-width:.83px;"/><line x1="63.04" y1="159.15" x2="56.78" y2="148.36" style="fill:none; stroke:#29235c; stroke-miterlimit:10; stroke-width:.83px;"/><line x1="34.53" y1="133.17" x2="60.65" y2="132.88" style="fill:none; stroke:#29235c; stroke-miterlimit:10; stroke-width:.83px;"/><line x1="66.85" y1="141.7" x2="53.96" y2="123.37" style="fill:none; stroke:#29235c; stroke-miterlimit:10; stroke-width:.83px;"/><line x1="60.65" y1="155.03" x2="60.65" y2="132.88" style="fill:none; stroke:#29235c; stroke-miterlimit:10; stroke-width:.83px;"/><path d="M63.41,162.36c2.68,0,2.69-4.17,0-4.17s-2.69,4.17,0,4.17h0Z" style="fill:#dedc00;"/><path d="M55.99,150.12c2.68,0,2.69-4.17,0-4.17s-2.69,4.17,0,4.17h0Z" style="fill:#dedc00;"/><path d="M44.71,157.09l.3,.29c.19,.2,.41,.35,.67,.43,.25,.13,.52,.19,.8,.18,.29,.01,.55-.05,.8-.18,.26-.08,.48-.23,.67-.43l.33-.42c.19-.33,.28-.68,.28-1.05l-.07-.55c-.1-.35-.28-.66-.54-.92l-.3-.29c-.19-.2-.41-.35-.67-.43-.25-.13-.52-.19-.8-.18-.29-.01-.55,.05-.8,.18-.26,.08-.48,.23-.67,.43l-.33,.42c-.19,.33-.28,.68-.28,1.05l.07,.55c.1,.35,.28,.66,.54,.92h0Z" style="fill:#dedc00;"/><path d="M67.27,144c2.68,0,2.69-4.17,0-4.17s-2.69,4.17,0,4.17h0Z" style="fill:#dedc00;"/><path d="M60.74,134.67h.3c.29,.01,.55-.05,.8-.18,.26-.08,.48-.23,.67-.43,.2-.19,.35-.41,.43-.67,.13-.25,.19-.52,.18-.8l-.07-.55c-.1-.35-.28-.66-.54-.92l-.42-.33c-.33-.19-.68-.28-1.05-.28h-.3c-.29-.01-.55,.05-.8,.18-.26,.08-.48,.23-.67,.43-.2,.19-.35,.41-.43,.67-.13,.25-.19,.52-.18,.8l.07,.55c.1,.35,.28,.66,.54,.92l.42,.33c.33,.19,.68,.28,1.05,.28h0Z" style="fill:#dedc00;"/><path d="M54.8,125.93c2.68,0,2.69-4.17,0-4.17s-2.69,4.17,0,4.17h0Z" style="fill:#dedc00;"/><path d="M33.11,134.67c2.68,0,2.69-4.17,0-4.17s-2.69,4.17,0,4.17h0Z" style="fill:#dedc00;"/><line x1="50.07" y1="208.27" x2="35.49" y2="194.21" style="fill:none; stroke:#29235c; stroke-miterlimit:10; stroke-width:.83px;"/><line x1="69.36" y1="189.97" x2="50.07" y2="208.27" style="fill:none; stroke:#29235c; stroke-miterlimit:10; stroke-width:.83px;"/><path d="M49.16,209.48c2.68,0,2.69-4.17,0-4.17s-2.69,4.17,0,4.17h0Z" style="fill:#dedc00;"/><path d="M34.6,196.65c2.68,0,2.69-4.17,0-4.17s-2.69,4.17,0,4.17h0Z" style="fill:#dedc00;"/><path d="M69.36,192.57c2.68,0,2.69-4.17,0-4.17s-2.69,4.17,0,4.17h0Z" style="fill:#dedc00;"/><line x1="90.47" y1="7.97" x2="90.47" y2="22.74" style="fill:none; stroke:#29235c; stroke-miterlimit:10; stroke-width:.83px;"/><path d="M90.53,10.25c2.68,0,2.69-4.17,0-4.17s-2.69,4.17,0,4.17h0Z" style="fill:#dedc00;"/><line x1="106.05" y1="187.19" x2="106.05" y2="201.95" style="fill:none; stroke:#29235c; stroke-miterlimit:10; stroke-width:.83px;"/><line x1="106.05" y1="187.19" x2="106.05" y2="201.95" style="fill:none; stroke:#29235c; stroke-miterlimit:10; stroke-width:.83px;"/><line x1="106.05" y1="187.19" x2="106.05" y2="201.95" style="fill:none; stroke:#29235c; stroke-miterlimit:10; stroke-width:.83px;"/><path d="M106.05,189.27c2.68,0,2.69-4.17,0-4.17s-2.69,4.17,0,4.17h0Z" style="fill:#dedc00;"/><line x1="90.56" y1="201.95" x2="90.56" y2="187.19" style="fill:none; stroke:#29235c; stroke-miterlimit:10; stroke-width:.83px;"/><path d="M90.5,203.85c2.68,0,2.69-4.17,0-4.17s-2.69,4.17,0,4.17h0Z" style="fill:#dedc00;"/><line x1="98.05" y1="20.71" x2="112.63" y2="34.77" style="fill:none; stroke:#29235c; stroke-miterlimit:10; stroke-width:.83px;"/><line x1="78.76" y1="39.01" x2="98.05" y2="20.71" style="fill:none; stroke:#29235c; stroke-miterlimit:10; stroke-width:.83px;"/><path d="M98.96,23.67c2.68,0,2.69-4.17,0-4.17s-2.69,4.17,0,4.17h0Z" style="fill:#dedc00;"/><path d="M113.52,36.5c2.68,0,2.69-4.17,0-4.17s-2.69,4.17,0,4.17h0Z" style="fill:#dedc00;"/></g></svg>